<svg xmlns="http://www.w3.org/2000/svg" xmlns:xlink="http://www.w3.org/1999/xlink" version="1.1" x="0px" y="0px" viewBox="0 0 64 64" enable-background="new 0 0 64 64" xml:space="preserve">
<g id="cloudstorage-outline-bot_x5F_s1g1_x5F_s2g1_x5F_s3g1_x5F_s4g2">
	<path fill="none" stroke="#000000" stroke-width="1" stroke-linecap="round" stroke-linejoin="round" stroke-miterlimit="10" d="   M16.443,44.25v-1.778c0-1.114,0.903-2.017,2.017-2.017h27.465c1.114,0,2.017,0.903,2.017,2.017v1.778"/>
	
		<line fill="none" stroke="#000000" stroke-width="1" stroke-linecap="round" stroke-linejoin="round" stroke-miterlimit="10" x1="32.211" y1="37.25" x2="32.211" y2="44.25"/>
</g>
<g id="cloudstorage-outline-top_x5F_s1g1_x5F_s2g2_x5F_s3g1_x5F_s4g2_x5F_background">
	<g id="Layer_5">
	</g>
	
		<path fill="#FFFFFF" stroke="#536DFE" stroke-width="1" stroke-linecap="round" stroke-linejoin="round" stroke-miterlimit="10" d="   M39.477,12.753c-4.16-0.094-7.853,1.891-10.133,4.984c-0.924,1.254-2.373,2.013-3.931,2.013h-3.806c-4.66,0-8.73,3.517-9.031,8.168   c-0.33,5.096,3.706,9.332,8.731,9.332h17.886c6.935,0,12.525-5.764,12.24-12.762C51.173,18.118,45.851,12.898,39.477,12.753z"/>
</g>
<g id="cloudstorage-outline-bot_x5F_s1g1_x5F_s2g1_x5F_s3g1_x5F_s4g2_x5F_background">
	
		<path fill="#FFFFFF" stroke="#000000" stroke-width="1" stroke-linecap="round" stroke-linejoin="round" stroke-miterlimit="10" d="   M18.341,44.25h-3.795c-0.885,0-1.602,0.717-1.602,1.602v3.795c0,0.885,0.717,1.602,1.602,1.602h3.795   c0.885,0,1.602-0.717,1.602-1.602v-3.795C19.943,44.967,19.226,44.25,18.341,44.25z"/>
	
		<path fill="#FFFFFF" stroke="#000000" stroke-width="1" stroke-linecap="round" stroke-linejoin="round" stroke-miterlimit="10" d="   M49.841,44.25h-3.795c-0.885,0-1.602,0.717-1.602,1.602v3.795c0,0.885,0.717,1.602,1.602,1.602h3.795   c0.885,0,1.602-0.717,1.602-1.602v-3.795C51.443,44.967,50.726,44.25,49.841,44.25z"/>
	
		<path fill="#FFFFFF" stroke="#000000" stroke-width="1" stroke-linecap="round" stroke-linejoin="round" stroke-miterlimit="10" d="   M39.341,44.25H25.045c-0.885,0-1.602,0.717-1.602,1.602v3.795c0,0.885,0.717,1.602,1.602,1.602h14.295   c0.885,0,1.602-0.717,1.602-1.602v-3.795C40.943,44.967,40.226,44.25,39.341,44.25z"/>
</g>
<g id="cloudstorage-outline-bot_x5F_s1g1_x5F_s2g2_x5F_s3g1_x5F_s4g1">
	
		<line fill="none" stroke="#536DFE" stroke-width="1" stroke-linecap="round" stroke-linejoin="round" stroke-miterlimit="10" x1="30.443" y1="47.75" x2="33.943" y2="47.75"/>
</g>
</svg>