<svg id="visual" viewBox="0 0 2560 5000" width="2560" height="5000" xmlns="http://www.w3.org/2000/svg"
  xmlns:xlink="http://www.w3.org/1999/xlink" version="1.1">
  <g stroke-width="0" stroke-linejoin="bevel">
    <path d="M1288 2438L1666.7 2441L1324 2103.3Z" fill="rgba(0,0,0,0.05)" stroke="rgba(0,0,0,0.05)">
    </path>
    <path d="M1666.7 2441L1706.7 2118.3L1324 2103.3Z" fill="rgba(250,250,250,0.05)" stroke="rgba(250,250,250,0.05)">
    </path>
    <path d="M1706.7 2118.3L1734.7 1723.7L1324 2103.3Z" fill="rgba(250,250,250,0.05)" stroke="rgba(250,250,250,0.05)">
    </path>
    <path d="M924.3 1592.7L864.3 2089.3L1324 2103.3Z" fill="rgba(200,200,200,0.05)" stroke="rgba(200,200,200,0.05)">
    </path>
    <path d="M1324 2103.3L864.3 2089.3L1288 2438Z" fill="rgba(150,150,150,0.05)" stroke="rgba(150,150,150,0.05)">
    </path>
    <path d="M1288 2438L1676.7 2938.7L1666.7 2441Z" fill="rgba(100,100,100,0.05)" stroke="rgba(100,100,100,0.05)">
    </path>
    <path d="M1666.7 2441L2213.3 2404L1706.7 2118.3Z" fill="rgba(250,250,250,0.05)" stroke="rgba(250,250,250,0.05)0">
    </path>
    <path d="M1706.7 2118.3L2177.3 1994.3L1734.7 1723.7Z" fill="rgba(50,50,50,0.05)" stroke="rgba(50,50,50,0.05)">
    </path>
    <path d="M1301 2961.7L1676.7 2938.7L1288 2438Z" fill="rgba(250,250,250,0.05)" stroke="rgba(250,250,250,0.05)">
    </path>
    <path d="M919.3 2992.7L1301 2961.7L1288 2438Z" fill="rgba(75,75,75,0.05)" stroke="rgba(75,75,75,0.05)">
    </path>
    <path d="M864.3 2089.3L773.3 2401L1288 2438Z" fill="rgba(200,200,200,0.05)" stroke="rgba(200,200,200,0.05)">
    </path>
    <path d="M1734.7 1723.7L1269 1579.7L1324 2103.3Z" fill="rgba(50,50,50,0.05)" stroke="rgba(50,50,50,0.05)">
    </path>
    <path d="M2208.3 2930.7L2213.3 2404L1666.7 2441Z" fill="rgba(50,50,50,0.05)" stroke="rgba(50,50,50,0.05)">
    </path>
    <path d="M2213.3 2404L2177.3 1994.3L1706.7 2118.3Z" fill="rgba(50,50,50,0.05)" stroke="rgba(50,50,50,0.05)">
    </path>
    <path d="M1269 1579.7L924.3 1592.7L1324 2103.3Z" fill="rgba(0,0,0,0.05)" stroke="rgba(0,0,0,0.05)">
    </path>
    <path d="M864.3 2089.3L409.7 1985.3L773.3 2401Z" fill="rgba(0,0,0,0.05)" stroke="rgba(0,0,0,0.05)">
    </path>
    <path d="M773.3 2401L919.3 2992.7L1288 2438Z" fill="rgba(175,175,175,0.05)" stroke="rgba(175,175,175,0.05)">
    </path>
    <path d="M2132.3 3246.3L2208.3 2930.7L1676.7 2938.7Z" fill="rgba(100,100,100,0.05)" stroke="rgba(100,100,100,0.05)">
    </path>
    <path d="M2177.3 1994.3L2220.3 1677.7L1734.7 1723.7Z" fill="rgba(125,125,125,0.05)" stroke="rgba(125,125,125,0.05)">
    </path>
    <path d="M1734.7 1723.7L1787.7 1301L1269 1579.7Z" fill="rgba(0,0,0,0.05)" stroke="rgba(0,0,0,0.05)">
    </path>
    <path d="M2560 1721.7L2220.3 1677.7L2177.3 1994.3Z" fill="rgba(250,250,250,0.05)" stroke="rgba(250,250,250,0.05)">
    </path>
    <path d="M1723.7 3365.3L1676.7 2938.7L1301 2961.7Z" fill="rgba(100,100,100,0.05)" stroke="rgba(100,100,100,0.05)">
    </path>
    <path d="M1676.7 2938.7L2208.3 2930.7L1666.7 2441Z" fill="rgba(100,100,100,0.05)" stroke="rgba(100,100,100,0.05)">
    </path>
    <path d="M2213.3 2404L2560 2085.3L2177.3 1994.3Z" fill="rgba(175,175,175,0.05)" stroke="rgba(175,175,175,0.05)">
    </path>
    <path d="M2103.3 1305L1787.7 1301L1734.7 1723.7Z" fill="rgba(0,0,0,0.05)" stroke="rgba(0,0,0,0.05)">
    </path>
    <path d="M1269 1579.7L822.3 1179L924.3 1592.7Z" fill="rgba(0,0,0,0.05)" stroke="rgba(0,0,0,0.05)">
    </path>
    <path d="M1787.7 1301L1373 1218L1269 1579.7Z" fill="rgba(125,125,125,0.05)" stroke="rgba(125,125,125,0.05)">
    </path>
    <path d="M2560 2589L2560 2085.3L2213.3 2404Z" fill="rgba(125,125,125,0.05)" stroke="rgba(125,125,125,0.05)">
    </path>
    <path d="M1281 3411.3L1723.7 3365.3L1301 2961.7Z" fill="rgba(75,75,75,0.05)" stroke="rgba(75,75,75,0.05)">
    </path>
    <path d="M499.7 1728.7L864.3 2089.3L924.3 1592.7Z" fill="rgba(100,100,100,0.05)" stroke="rgba(100,100,100,0.05)">
    </path>
    <path d="M499.7 1728.7L409.7 1985.3L864.3 2089.3Z" fill="rgba(200,200,200,0.05)" stroke="rgba(200,200,200,0.05)">
    </path>
    <path d="M773.3 2401L398.7 2584L919.3 2992.7Z" fill="rgba(250,250,250,0.05)" stroke="rgba(250,250,250,0.05)">
    </path>
    <path d="M409.7 1985.3L398.7 2584L773.3 2401Z" fill="rgba(250,250,250,0.05)" stroke="rgba(250,250,250,0.05)">
    </path>
    <path d="M2208.3 2930.7L2560 2589L2213.3 2404Z" fill="rgba(200,200,200,0.05)" stroke="rgba(200,200,200,0.05)">
    </path>
    <path d="M503.7 1348L499.7 1728.7L924.3 1592.7Z" fill="rgba(250,250,250,0.05)" stroke="rgba(250,250,250,0.05)">
    </path>
    <path d="M919.3 2992.7L1281 3411.3L1301 2961.7Z" fill="rgba(250,250,250,0.05)" stroke="rgba(250,250,250,0.05)">
    </path>
    <path d="M843.3 3342.3L1281 3411.3L919.3 2992.7Z" fill="rgba(250,250,250,0.05)" stroke="rgba(250,250,250,0.05)">
    </path>
    <path d="M1723.7 3365.3L2132.3 3246.3L1676.7 2938.7Z" fill="rgba(250,250,250,0.05)" stroke="rgba(250,250,250,0.05)">
    </path>
    <path d="M2208.3 2930.7L2560 2879.7L2560 2589Z" fill="rgba(75,75,75,0.05)" stroke="rgba(75,75,75,0.05)">
    </path>
    <path d="M2220.3 1677.7L2103.3 1305L1734.7 1723.7Z" fill="rgba(250,250,250,0.05)" stroke="rgba(250,250,250,0.05)">
    </path>
    <path d="M1708.7 733.3L1329 853.3L1373 1218Z" fill="rgba(250,250,250,0.05)" stroke="rgba(250,250,250,0.05)">
    </path>
    <path d="M2560 1227L2103.3 1305L2220.3 1677.7Z" fill="rgba(75,75,75,0.05)" stroke="rgba(75,75,75,0.05)">
    </path>
    <path d="M2560 2085.3L2560 1721.7L2177.3 1994.3Z" fill="rgba(250,250,250,0.05)" stroke="rgba(250,250,250,0.05)">
    </path>
    <path d="M354.7 3003.7L843.3 3342.3L919.3 2992.7Z" fill="rgba(250,250,250,0.05)" stroke="rgba(250,250,250,0.05)">
    </path>
    <path d="M2560 3379.3L2560 2879.7L2208.3 2930.7Z" fill="rgba(0,0,0,0.05)" stroke="rgba(0,0,0,0.05)">
    </path>
    <path d="M1373 1218L822.3 1179L1269 1579.7Z" fill="rgba(100,100,100,0.05)" stroke="rgba(100,100,100,0.05)"></path>
    <path d="M0 2934.7L354.7 3003.7L398.7 2584Z" fill="rgba(125,125,125,0.05)" stroke="rgba(125,125,125,0.05)"></path>
    <path d="M398.7 2584L354.7 3003.7L919.3 2992.7Z" fill="rgba(50,50,50,0.05)" stroke="rgba(50,50,50,0.05)">
    </path>
    <path d="M822.3 1179L503.7 1348L924.3 1592.7Z" fill="rgba(0,0,0,0.05)" stroke="rgba(0,0,0,0.05)">
    </path>
    <path d="M0 1680.7L0 2010.3L409.7 1985.3Z" fill="rgba(125,125,125,0.05)" stroke="rgba(125,125,125,0.05)"></path>
    <path d="M1708.7 733.3L1373 1218L1787.7 1301Z" fill="rgba(100,100,100,0.05)" stroke="rgba(100,100,100,0.05)">
    </path>
    <path d="M1373 1218L1329 853.3L822.3 1179Z" fill="rgba(75,75,75,0.05)" stroke="rgba(75,75,75,0.05)"></path>
    <path d="M822.3 1179L478.7 909.3L503.7 1348Z" fill="rgba(250,250,250,0.05)" stroke="rgba(250,250,250,0.05)">
    </path>
    <path d="M409.7 1985.3L0 2449L398.7 2584Z" fill="rgba(200,200,200,0.05)" stroke="rgba(200,200,200,0.05)"></path>
    <path d="M0 2010.3L0 2449L409.7 1985.3Z" fill="rgba(250,250,250,0.05)" stroke="rgba(250,250,250,0.05)"></path>
    <path d="M1281 3411.3L1701.7 3779L1723.7 3365.3Z" fill="rgba(200,200,200,0.05)" stroke="rgba(200,200,200,0.05)">
    </path>
    <path d="M1723.7 3365.3L2167.3 3705L2132.3 3246.3Z" fill="rgba(75,75,75,0.05)" stroke="rgba(75,75,75,0.05)">
    </path>
    <path d="M843.3 3342.3L1208 3767L1281 3411.3Z" fill="rgba(175,175,175,0.05)" stroke="rgba(175,175,175,0.05)">
    </path>
    <path d="M927.3 3847L1208 3767L843.3 3342.3Z" fill="rgba(100,100,100,0.05)" stroke="rgba(100,100,100,0.05)">
    </path>
    <path d="M0 1680.7L409.7 1985.3L499.7 1728.7Z" fill="rgba(100,100,100,0.05)" stroke="rgba(100,100,100,0.05)">
    </path>
    <path d="M1208 3767L1701.7 3779L1281 3411.3Z" fill="rgba(125,125,125,0.05)" stroke="rgba(125,125,125,0.05)">
    </path>
    <path d="M2132.3 3246.3L2560 3379.3L2208.3 2930.7Z" fill="rgba(75,75,75,0.05)" stroke="rgba(75,75,75,0.05)">
    </path>
    <path d="M2560 1721.7L2560 1227L2220.3 1677.7Z" fill="rgba(0,0,0,0.05)" stroke="rgba(0,0,0,0.05)">
    </path>
    <path d="M2047.3 814.3L1708.7 733.3L1787.7 1301Z" fill="rgba(175,175,175,0.05)" stroke="rgba(175,175,175,0.05)">
    </path>
    <path d="M2167.3 3705L2560 3379.3L2132.3 3246.3Z" fill="rgba(50,50,50,0.05)" stroke="rgba(50,50,50,0.05)">
    </path>
    <path d="M2047.3 814.3L1787.7 1301L2103.3 1305Z" fill="rgba(0,0,0,0.05)" stroke="rgba(0,0,0,0.05)">
    </path>
    <path d="M1701.7 3779L2167.3 3705L1723.7 3365.3Z" fill="rgba(75,75,75,0.05)" stroke="rgba(75,75,75,0.05)">
    </path>
    <path d="M2560 1227L2047.3 814.3L2103.3 1305Z" fill="rgba(250,250,250,0.05)" stroke="rgba(250,250,250,0.05)">
    </path>
    <path d="M503.7 1348L0 1680.7L499.7 1728.7Z" fill="rgba(0,0,0,0.05)" stroke="rgba(0,0,0,0.05)"></path>
    <path d="M0 3378.3L329.7 3408.3L354.7 3003.7Z" fill="rgba(125,125,125,0.05)" stroke="rgba(125,125,125,0.05)">
    </path>
    <path d="M354.7 3003.7L329.7 3408.3L843.3 3342.3Z" fill="rgba(175,175,175,0.05)" stroke="rgba(175,175,175,0.05)">
    </path>
    <path d="M0 2449L0 2934.7L398.7 2584Z" fill="rgba(250,250,250,0.05)" stroke="rgba(250,250,250,0.05)"></path>
    <path d="M1329 853.3L814.3 811.3L822.3 1179Z" fill="rgba(250,250,250,0.05)" stroke="rgba(250,250,250,0.05)">
    </path>
    <path d="M503.7 1348L0 1181L0 1680.7Z" fill="rgba(0,0,0,0.05)" stroke="rgba(0,0,0,0.05)"></path>
    <path d="M881.3 475.7L814.3 811.3L1329 853.3Z" fill="rgba(200,200,200,0.05)" stroke="rgba(200,200,200,0.05)">
    </path>
    <path d="M377.7 3772L927.3 3847L843.3 3342.3Z" fill="rgba(100,100,100,0.05)" stroke="rgba(100,100,100,0.05)">
    </path>
    <path d="M1208 3767L1311 4131.7L1701.7 3779Z" fill="rgba(250,250,250,0.05)" stroke="rgba(250,250,250,0.05)">
    </path>
    <path d="M814.3 811.3L478.7 909.3L822.3 1179Z" fill="rgba(125,125,125,0.05)" stroke="rgba(125,125,125,0.05)">
    </path>
    <path d="M2560 1227L2560 811.3L2047.3 814.3Z" fill="rgba(150,150,150,0.05)" stroke="rgba(150,150,150,0.05)">
    </path>
    <path d="M2128.3 390.7L1622.7 453.7L1708.7 733.3Z" fill="rgba(75,75,75,0.05)" stroke="rgba(75,75,75,0.05)">
    </path>
    <path d="M0 2934.7L0 3378.3L354.7 3003.7Z" fill="rgba(200,200,200,0.05)" stroke="rgba(200,200,200,0.05)"></path>
    <path d="M329.7 3408.3L377.7 3772L843.3 3342.3Z" fill="rgba(100,100,100,0.05)" stroke="rgba(100,100,100,0.05)">
    </path>
    <path d="M2128.3 390.7L1708.7 733.3L2047.3 814.3Z" fill="rgba(250,250,250,0.05)" stroke="rgba(250,250,250,0.05)">
    </path>
    <path d="M1708.7 733.3L1622.7 453.7L1329 853.3Z" fill="rgba(175,175,175,0.05)" stroke="rgba(175,175,175,0.05)">
    </path>
    <path d="M814.3 811.3L392.7 464.7L478.7 909.3Z" fill="rgba(150,150,150,0.05)" stroke="rgba(150,150,150,0.05)">
    </path>
    <path d="M0 3784L377.7 3772L329.7 3408.3Z" fill="rgba(50,50,50,0.05)" stroke="rgba(50,50,50,0.05)"></path>
    <path d="M478.7 909.3L0 1181L503.7 1348Z" fill="rgba(0,0,0,0.05)" stroke="rgba(0,0,0,0.05)"></path>
    <path d="M927.3 3847L1311 4131.7L1208 3767Z" fill="rgba(250,250,250,0.05)" stroke="rgba(250,250,250,0.05)"></path>
    <path d="M1701.7 3779L2137.3 4123.7L2167.3 3705Z" fill="rgba(75,75,75,0.05)" stroke="rgba(75,75,75,0.05)">
    </path>
    <path d="M809.3 4154.7L1311 4131.7L927.3 3847Z" fill="rgba(150,150,150,0.05)" stroke="rgba(150,150,150,0.05)">
    </path>
    <path d="M1622.7 453.7L1313 431.7L1329 853.3Z" fill="rgba(0,0,0,0.05)" stroke="rgba(0,0,0,0.05)">
    </path>
    <path d="M478.7 909.3L0 792.3L0 1181Z" fill="rgba(0,0,0,0.05)" stroke="rgba(0,0,0,0.05)"></path>
    <path d="M2137.3 4123.7L2560 3825L2167.3 3705Z" fill="rgba(75,75,75,0.05)" stroke="rgba(75,75,75,0.05)">
    </path>
    <path d="M2167.3 3705L2560 3825L2560 3379.3Z" fill="rgba(50,50,50,0.05)" stroke="rgba(50,50,50,0.05)">
    </path>
    <path d="M1313 431.7L881.3 475.7L1329 853.3Z" fill="rgba(0,0,0,0.05)" stroke="rgba(0,0,0,0.05)">
    </path>
    <path d="M1311 4131.7L1642.7 4210.7L1701.7 3779Z" fill="rgba(0,0,0,0.05)" stroke="rgba(0,0,0,0.05)">
    </path>
    <path d="M1642.7 4210.7L2137.3 4123.7L1701.7 3779Z" fill="rgba(75,75,75,0.05)" stroke="rgba(75,75,75,0.05)">
    </path>
    <path d="M377.7 3772L809.3 4154.7L927.3 3847Z" fill="rgba(150,150,150,0.05)" stroke="rgba(150,150,150,0.05)">
    </path>
    <path d="M1311 4131.7L1657.7 4518.3L1642.7 4210.7Z" fill="rgba(100,100,100,0.05)" stroke="rgba(100,100,100,0.05)">
    </path>
    <path d="M2560 510.7L2128.3 390.7L2047.3 814.3Z" fill="rgba(0,0,0,0.05)" stroke="rgba(0,0,0,0.05)">
    </path>
    <path d="M1622.7 453.7L1672.7 0L1313 431.7Z" fill="rgba(125,125,125,0.05)" stroke="rgba(125,125,125,0.05)"></path>
    <path d="M2560 811.3L2560 510.7L2047.3 814.3Z" fill="rgba(75,75,75,0.05)" stroke="rgba(75,75,75,0.05)">
    </path>
    <path d="M0 3378.3L0 3784L329.7 3408.3Z" fill="rgba(175,175,175,0.05)" stroke="rgba(175,175,175,0.05)"></path>
    <path d="M377.7 3772L436.7 4200.7L809.3 4154.7Z" fill="rgba(175,175,175,0.05)" stroke="rgba(175,175,175,0.05)">
    </path>
    <path d="M392.7 464.7L0 792.3L478.7 909.3Z" fill="rgba(0,0,0,0.05)" stroke="rgba(0,0,0,0.05)"></path>
    <path d="M828.3 0L392.7 464.7L881.3 475.7Z" fill="rgba(100,100,100,0.05)" stroke="rgba(100,100,100,0.05)"></path>
    <path d="M881.3 475.7L392.7 464.7L814.3 811.3Z" fill="rgba(200,200,200,0.05)" stroke="rgba(200,200,200,0.05)">
    </path>
    <path d="M1251 0L881.3 475.7L1313 431.7Z" fill="rgba(0,0,0,0.05)" stroke="rgba(0,0,0,0.05)"></path>
    <path d="M0 3784L436.7 4200.7L377.7 3772Z" fill="rgba(250,250,250,0.05)" stroke="rgba(250,250,250,0.05)"></path>
    <path d="M1290 4626.3L1657.7 4518.3L1311 4131.7Z" fill="rgba(50,50,50,0.05)" stroke="rgba(50,50,50,0.05)">
    </path>
    <path d="M2141.3 4676.3L2560 4233.7L2137.3 4123.7Z" fill="rgba(150,150,150,0.05)" stroke="rgba(150,150,150,0.05)">
    </path>
    <path d="M2137.3 4123.7L2560 4233.7L2560 3825Z" fill="rgba(75,75,75,0.05)" stroke="rgba(75,75,75,0.05)">
    </path>
    <path d="M1657.7 4518.3L2137.3 4123.7L1642.7 4210.7Z" fill="rgba(150,150,150,0.05)" stroke="rgba(150,150,150,0.05)">
    </path>
    <path d="M847.3 4524.3L1311 4131.7L809.3 4154.7Z" fill="rgba(250,250,250,0.05)" stroke="rgba(250,250,250,0.05)">
    </path>
    <path d="M2149.3 0L1672.7 0L2128.3 390.7Z" fill="rgba(200,200,200,0.05)" stroke="rgba(200,200,200,0.05)"></path>
    <path d="M2128.3 390.7L1672.7 0L1622.7 453.7Z" fill="rgba(0,0,0,0.05)" stroke="rgba(0,0,0,0.05)">
    </path>
    <path d="M1672.7 0L1251 0L1313 431.7Z" fill="rgba(100,100,100,0.05)" stroke="rgba(100,100,100,0.05)"></path>
    <path d="M436.7 4200.7L847.3 4524.3L809.3 4154.7Z" fill="rgba(100,100,100,0.05)" stroke="rgba(100,100,100,0.05)">
    </path>
    <path d="M847.3 4524.3L1290 4626.3L1311 4131.7Z" fill="rgba(200,200,200,0.05)" stroke="rgba(200,200,200,0.05)">
    </path>
    <path d="M336.7 0L0 432.7L392.7 464.7Z" fill="rgba(50,50,50,0.05)" stroke="rgba(50,50,50,0.05)"></path>
    <path d="M392.7 464.7L0 432.7L0 792.3Z" fill="rgba(100,100,100,0.05)" stroke="rgba(100,100,100,0.05)"></path>
    <path d="M1251 0L828.3 0L881.3 475.7Z" fill="rgba(100,100,100,0.05)" stroke="rgba(100,100,100,0.05)"></path>
    <path d="M2560 0L2149.3 0L2128.3 390.7Z" fill="rgba(175,175,175,0.05)" stroke="rgba(175,175,175,0.05)"></path>
    <path d="M436.7 4200.7L447.7 4639.3L847.3 4524.3Z" fill="rgba(250,250,250,0.05)" stroke="rgba(250,250,250,0.05)">
    </path>
    <path d="M0 3784L0 4265.7L436.7 4200.7Z" fill="rgba(0,0,0,0.05)" stroke="rgba(0,0,0,0.05)"></path>
    <path d="M1657.7 4518.3L2141.3 4676.3L2137.3 4123.7Z" fill="rgba(0,0,0,0.05)" stroke="rgba(0,0,0,0.05)">
    </path>
    <path d="M1719.7 5000L2141.3 4676.3L1657.7 4518.3Z" fill="rgba(250,250,250,0.05)" stroke="rgba(250,250,250,0.05)">
    </path>
    <path d="M2560 510.7L2560 0L2128.3 390.7Z" fill="rgba(75,75,75,0.05)" stroke="rgba(75,75,75,0.05)"></path>
    <path d="M828.3 0L336.7 0L392.7 464.7Z" fill="rgba(150,150,150,0.05)" stroke="rgba(150,150,150,0.05)"></path>
    <path d="M0 4265.7L447.7 4639.3L436.7 4200.7Z" fill="rgba(50,50,50,0.05)" stroke="rgba(50,50,50,0.05)">
    </path>
    <path d="M862.3 5000L1267 5000L1290 4626.3Z" fill="rgba(0,0,0,0.05)" stroke="rgba(0,0,0,0.05)"></path>
    <path d="M1290 4626.3L1719.7 5000L1657.7 4518.3Z" fill="rgba(100,100,100,0.05)" stroke="rgba(100,100,100,0.05)">
    </path>
    <path d="M2141.3 4676.3L2560 4635.3L2560 4233.7Z" fill="rgba(0,0,0,0.05)" stroke="rgba(0,0,0,0.05)">
    </path>
    <path d="M862.3 5000L1290 4626.3L847.3 4524.3Z" fill="rgba(250,250,250,0.05)" stroke="rgba(250,250,250,0.05)">
    </path>
    <path d="M2141.3 4676.3L2223.3 5000L2560 4635.3Z" fill="rgba(250,250,250,0.05)" stroke="rgba(250,250,250,0.05)">
    </path>
    <path d="M1267 5000L1719.7 5000L1290 4626.3Z" fill="rgba(250,250,250,0.05)" stroke="rgba(250,250,250,0.05)">
    </path>
    <path d="M336.7 0L0 0L0 432.7Z" fill="rgba(75,75,75,0.05)" stroke="rgba(75,75,75,0.05)"></path>
    <path d="M0 4265.7L0 4586.3L447.7 4639.3Z" fill="rgba(175,175,175,0.05)" stroke="rgba(175,175,175,0.05)"></path>
    <path d="M447.7 4639.3L862.3 5000L847.3 4524.3Z" fill="rgba(125,125,125,0.05)" stroke="rgba(125,125,125,0.05)">
    </path>
    <path d="M337.7 5000L862.3 5000L447.7 4639.3Z" fill="rgba(0,0,0,0.05)" stroke="rgba(0,0,0,0.05)">
    </path>
    <path d="M1719.7 5000L2223.3 5000L2141.3 4676.3Z" fill="rgba(50,50,50,0.05)" stroke="rgba(50,50,50,0.05)">
    </path>
    <path d="M2223.3 5000L2560 5000L2560 4635.3Z" fill="rgba(75,75,75,0.05)" stroke="rgba(75,75,75,0.05)">
    </path>
    <path d="M0 4586.3L337.7 5000L447.7 4639.3Z" fill="rgba(125,125,125,0.05)" stroke="rgba(125,125,125,0.05)"></path>
    <path d="M0 4586.3L0 5000L337.7 5000Z" fill="rgba(50,50,50,0.05)" stroke="rgba(50,50,50,0.05)"></path>
  </g>
</svg>