<?xml version="1.0" standalone="no"?>
<!DOCTYPE svg PUBLIC "-//W3C//DTD SVG 20010904//EN"
 "http://www.w3.org/TR/2001/REC-SVG-20010904/DTD/svg10.dtd">
<svg version="1.0" xmlns="http://www.w3.org/2000/svg"
 width="512.000000pt" height="512.000000pt" viewBox="0 0 512.000000 512.000000"
 preserveAspectRatio="xMidYMid meet">
<metadata>
Created by potrace 1.14, written by Peter Selinger 2001-2017
</metadata>
<g transform="translate(0.000000,512.000000) scale(0.100000,-0.100000)"
fill="#000000" stroke="none">
<path d="M944 4345 c-103 -23 -182 -89 -237 -198 -52 -104 -57 -157 -61 -655
-2 -251 -6 -470 -10 -487 -4 -16 -9 -43 -12 -60 -4 -16 -13 -43 -21 -60 -17
-33 -72 -95 -85 -95 -5 0 -33 -16 -63 -35 -73 -46 -97 -93 -97 -190 0 -40 5
-89 11 -108 14 -42 64 -89 127 -118 76 -36 119 -104 141 -227 2 -15 6 -205 8
-422 5 -536 6 -545 25 -621 42 -162 151 -280 283 -304 50 -10 241 -10 288 -2
38 8 78 44 97 89 18 44 9 183 -14 215 -39 51 -64 63 -149 67 -44 2 -83 4 -87
5 -20 3 -28 145 -31 541 -2 239 -6 446 -10 459 -48 178 -104 286 -198 379
l-42 43 40 42 c114 121 166 215 199 362 6 28 11 256 17 767 2 259 -2 250 110
254 108 3 144 27 167 109 27 97 -5 215 -67 245 -36 17 -259 21 -329 5z"/>
<path d="M3875 4349 c-37 -10 -79 -53 -92 -95 -16 -47 -8 -158 13 -195 33 -56
61 -69 150 -73 45 -2 86 -6 92 -10 21 -13 26 -98 27 -501 1 -225 5 -435 9
-465 11 -76 58 -211 98 -277 18 -30 57 -81 86 -114 l54 -59 -54 -59 c-88 -97
-163 -257 -184 -391 -4 -25 -8 -232 -9 -460 -1 -412 -6 -493 -28 -507 -7 -4
-38 -8 -69 -9 -92 -3 -125 -12 -152 -45 -33 -38 -40 -67 -40 -149 0 -79 25
-136 72 -163 28 -16 54 -19 165 -19 177 0 238 17 317 89 70 63 122 173 139
293 4 35 8 239 9 454 0 469 5 550 41 631 25 54 59 88 120 120 94 47 124 94
127 204 4 119 -22 164 -138 232 -99 58 -128 115 -143 284 -4 39 -8 264 -10
500 -3 471 -4 479 -65 593 -43 81 -92 128 -169 165 -61 29 -71 31 -200 32 -75
1 -150 -2 -166 -6z"/>
<path d="M1803 4081 c-57 -24 -63 -29 -85 -79 -20 -45 -21 -64 -21 -1328 1
-1442 -6 -1318 77 -1365 37 -21 54 -24 161 -24 113 0 123 2 167 27 33 20 50
38 58 63 8 24 11 192 12 559 0 389 3 526 11 528 27 9 377 -1 436 -12 36 -6 85
-21 110 -33 59 -28 132 -99 169 -167 30 -54 51 -107 251 -624 65 -168 110
-269 127 -287 38 -39 116 -61 215 -58 175 4 241 46 233 145 -2 35 -130 369
-306 804 -91 223 -163 355 -236 432 -20 21 -34 39 -31 41 2 1 24 16 48 31 145
93 255 253 295 431 20 92 16 335 -7 417 -85 296 -313 452 -737 504 -30 4 -247
8 -481 9 -368 1 -432 -1 -466 -14z m931 -428 c130 -27 210 -83 257 -179 29
-58 32 -75 33 -157 1 -103 -2 -117 -40 -203 -22 -50 -99 -129 -157 -162 -96
-54 -130 -60 -404 -61 l-251 -2 0 391 -1 391 247 -2 c172 -1 268 -6 316 -16z"/>
</g>
</svg>
