<svg xmlns="http://www.w3.org/2000/svg" version="1.1" xmlns:xlink="http://www.w3.org/1999/xlink" xmlns:svgjs="http://svgjs.dev/svgjs" viewBox="0 0 800 800"><defs><linearGradient x1="50%" y1="0%" x2="50%" y2="100%" id="cccoil-grad"><stop stop-color="hsl(206, 75%, 49%)" stop-opacity="1" offset="0%"></stop><stop stop-color="hsl(331, 90%, 56%)" stop-opacity="1" offset="100%"></stop></linearGradient></defs><g stroke="url(#cccoil-grad)" fill="none" stroke-linecap="round"><circle r="362.5" cx="400" cy="400" stroke-width="4" stroke-dasharray="2278 2278" transform="rotate(360, 400, 400)" opacity="0.05"></circle><circle r="348" cx="400" cy="400" stroke-width="4" stroke-dasharray="2095 2187" transform="rotate(345, 400, 400)" opacity="0.09"></circle><circle r="333.5" cx="400" cy="400" stroke-width="4" stroke-dasharray="1921 2095" transform="rotate(330, 400, 400)" opacity="0.13"></circle><circle r="319" cx="400" cy="400" stroke-width="4" stroke-dasharray="1754 2004" transform="rotate(315, 400, 400)" opacity="0.17"></circle><circle r="304.5" cx="400" cy="400" stroke-width="4" stroke-dasharray="1594 1913" transform="rotate(300, 400, 400)" opacity="0.21"></circle><circle r="290" cx="400" cy="400" stroke-width="4" stroke-dasharray="1443 1822" transform="rotate(285, 400, 400)" opacity="0.25"></circle><circle r="275.5" cx="400" cy="400" stroke-width="4" stroke-dasharray="1298 1731" transform="rotate(270, 400, 400)" opacity="0.29"></circle><circle r="261" cx="400" cy="400" stroke-width="4" stroke-dasharray="1162 1640" transform="rotate(255, 400, 400)" opacity="0.33"></circle><circle r="246.5" cx="400" cy="400" stroke-width="4" stroke-dasharray="1033 1549" transform="rotate(240, 400, 400)" opacity="0.37"></circle><circle r="232" cx="400" cy="400" stroke-width="4" stroke-dasharray="911 1458" transform="rotate(225, 400, 400)" opacity="0.41"></circle><circle r="217.5" cx="400" cy="400" stroke-width="4" stroke-dasharray="797 1367" transform="rotate(210, 400, 400)" opacity="0.45"></circle><circle r="203" cx="400" cy="400" stroke-width="4" stroke-dasharray="691 1275" transform="rotate(195, 400, 400)" opacity="0.49"></circle><circle r="188.5" cx="400" cy="400" stroke-width="4" stroke-dasharray="592 1184" transform="rotate(180, 400, 400)" opacity="0.53"></circle><circle r="174" cx="400" cy="400" stroke-width="4" stroke-dasharray="501 1093" transform="rotate(165, 400, 400)" opacity="0.56"></circle><circle r="159.5" cx="400" cy="400" stroke-width="4" stroke-dasharray="418 1002" transform="rotate(150, 400, 400)" opacity="0.60"></circle><circle r="145" cx="400" cy="400" stroke-width="4" stroke-dasharray="342 911" transform="rotate(135, 400, 400)" opacity="0.64"></circle><circle r="130.5" cx="400" cy="400" stroke-width="4" stroke-dasharray="273 820" transform="rotate(120, 400, 400)" opacity="0.68"></circle><circle r="116" cx="400" cy="400" stroke-width="4" stroke-dasharray="213 729" transform="rotate(105, 400, 400)" opacity="0.72"></circle><circle r="101.5" cx="400" cy="400" stroke-width="4" stroke-dasharray="159 638" transform="rotate(90, 400, 400)" opacity="0.76"></circle><circle r="87" cx="400" cy="400" stroke-width="4" stroke-dasharray="114 547" transform="rotate(75, 400, 400)" opacity="0.80"></circle><circle r="72.5" cx="400" cy="400" stroke-width="4" stroke-dasharray="76 456" transform="rotate(60, 400, 400)" opacity="0.84"></circle><circle r="58" cx="400" cy="400" stroke-width="4" stroke-dasharray="46 364" transform="rotate(45, 400, 400)" opacity="0.88"></circle><circle r="43.5" cx="400" cy="400" stroke-width="4" stroke-dasharray="23 273" transform="rotate(30, 400, 400)" opacity="0.92"></circle><circle r="29" cx="400" cy="400" stroke-width="4" stroke-dasharray="8 182" transform="rotate(15, 400, 400)" opacity="0.96"></circle><circle r="14.5" cx="400" cy="400" stroke-width="4" stroke-dasharray="0 91" opacity="1.00"></circle></g></svg>