<svg xmlns="http://www.w3.org/2000/svg" width="600" height="600" viewBox="0 0 600 600"><rect width="100%" height="100%" fill="#DDDDDD"/><path fill="#999999" d="M155.675 284.025h4.11l-8.76 28.2h-4.73l-6.17-19.27q-.25-.7-.46-1.71-.12.49-.24.91-.12.43-.25.8l-6.22 19.27h-4.76l-8.74-28.2h4.39q.68 0 1.14.32.46.33.62.87l4.79 16.87q.16.62.31 1.36.14.73.3 1.53.15-.82.34-1.54.18-.73.4-1.35l5.54-16.87q.15-.45.61-.82.46-.37 1.12-.37h1.54q.69 0 1.11.33.43.34.65.86l5.52 16.87q.41 1.21.74 2.79.25-1.54.56-2.79l4.8-16.87q.12-.49.59-.84.48-.35 1.15-.35Zm6.98 8.19h4.83v20.01h-4.83v-20.01Zm5.49-5.83q0 .63-.25 1.17-.25.55-.67.96-.42.41-.99.65-.56.24-1.21.24-.62 0-1.17-.24-.56-.24-.97-.65-.41-.41-.65-.96-.25-.54-.25-1.17 0-.64.25-1.21.24-.56.65-.97.41-.41.97-.65.55-.25 1.17-.25.65 0 1.21.25.57.24.99.65.42.41.67.97.25.57.25 1.21Zm4.31-3.14h4.82v28.98h-4.82v-28.98Zm9.7 0h4.81v28.98h-4.81v-28.98Zm23.92 14.82v8.97q.82 1 1.79 1.41.96.41 2.03.41 1.12 0 2-.4.89-.4 1.51-1.25.63-.85.96-2.17.33-1.31.33-3.15 0-3.29-1.09-4.76-1.09-1.47-3.14-1.47-1.38 0-2.42.63-1.03.63-1.97 1.78Zm0-14.82v11.43q1.21-1.27 2.68-2.02 1.48-.75 3.37-.75 1.73 0 3.13.68 1.39.69 2.38 1.96.98 1.28 1.51 3.09.52 1.82.52 4.08 0 2.44-.6 4.43-.6 1.99-1.73 3.4-1.12 1.41-2.7 2.19t-3.51.78q-.93 0-1.69-.18-.76-.19-1.41-.52-.64-.33-1.18-.81-.53-.48-1.02-1.06l-.22 1.34q-.11.51-.4.73-.28.21-.77.21h-3.17v-28.98h4.81Zm21.12 16.68h9.09q0-.94-.27-1.77-.26-.83-.78-1.45-.53-.63-1.34-.99t-1.88-.36q-2.09 0-3.29 1.19-1.2 1.19-1.53 3.38Zm12.29 2.9h-12.39q.12 1.54.55 2.66.43 1.12 1.13 1.86.7.73 1.67 1.09.96.36 2.13.36t2.02-.28q.85-.27 1.48-.6.64-.33 1.11-.6.48-.28.93-.28.61 0 .9.45l1.38 1.76q-.8.93-1.79 1.57-1 .63-2.08 1.01t-2.2.54q-1.12.15-2.18.15-2.08 0-3.88-.69-1.79-.69-3.12-2.05-1.32-1.35-2.08-3.35t-.76-4.63q0-2.05.66-3.85.66-1.81 1.9-3.14 1.24-1.34 3.02-2.12 1.79-.78 4.03-.78 1.89 0 3.49.61 1.6.6 2.75 1.76 1.15 1.16 1.8 2.85.66 1.68.66 3.85 0 1.09-.24 1.47-.23.38-.89.38Zm24.78 4.23v-3.37q-2.09.1-3.51.36t-2.28.67q-.86.41-1.23.96-.37.54-.37 1.19 0 1.27.75 1.81.75.55 1.96.55 1.48 0 2.56-.54 1.09-.54 2.12-1.63Zm-10.18-10.51-.86-1.54q3.46-3.16 8.31-3.16 1.76 0 3.14.58 1.38.57 2.34 1.6.96 1.02 1.45 2.44.5 1.43.5 3.12v12.64h-2.18q-.69 0-1.06-.2-.37-.21-.58-.83l-.43-1.45q-.76.69-1.48 1.2-.72.52-1.5.87t-1.67.54q-.89.18-1.96.18-1.27 0-2.34-.34-1.07-.34-1.85-1.02-.78-.69-1.21-1.7-.43-1.01-.43-2.36 0-.76.25-1.51.26-.75.83-1.43.58-.69 1.49-1.29.92-.61 2.25-1.05 1.34-.45 3.11-.73 1.78-.29 4.06-.35v-1.17q0-2-.86-2.97-.86-.96-2.47-.96-1.17 0-1.94.27t-1.36.61l-1.06.62q-.48.27-1.06.27-.51 0-.86-.26-.35-.27-.57-.62Zm31.96 9.75v-8.97q-.82-.99-1.78-1.4-.97-.41-2.08-.41-1.09 0-1.97.41-.88.41-1.5 1.24-.62.83-.96 2.1-.33 1.28-.33 3.01 0 1.76.29 2.98.28 1.22.81 1.99.52.77 1.28 1.11.76.34 1.7.34 1.5 0 2.55-.62 1.06-.63 1.99-1.78Zm0-23.05h4.82v28.98h-2.95q-.95 0-1.2-.88l-.41-1.93q-1.21 1.39-2.78 2.24-1.57.86-3.66.86-1.64 0-3-.68-1.37-.68-2.35-1.98-.99-1.3-1.52-3.21-.54-1.91-.54-4.37 0-2.22.61-4.13.6-1.91 1.73-3.31 1.13-1.41 2.71-2.2 1.58-.79 3.55-.79 1.68 0 2.87.53 1.19.53 2.12 1.42v-10.55Zm22.13 23.05v-8.97q-.81-.99-1.78-1.4-.96-.41-2.08-.41-1.09 0-1.97.41-.87.41-1.5 1.24-.62.83-.95 2.1-.33 1.28-.33 3.01 0 1.76.28 2.98t.81 1.99q.52.77 1.28 1.11.77.34 1.7.34 1.5 0 2.56-.62 1.05-.63 1.98-1.78Zm0-23.05h4.82v28.98h-2.94q-.96 0-1.21-.88l-.41-1.93q-1.21 1.39-2.78 2.24-1.57.86-3.66.86-1.63 0-3-.68-1.36-.68-2.35-1.98-.98-1.3-1.52-3.21t-.54-4.37q0-2.22.61-4.13.6-1.91 1.73-3.31 1.13-1.41 2.71-2.2 1.58-.79 3.55-.79 1.68 0 2.87.53 1.19.53 2.12 1.42v-10.55Zm13.38 16.68h9.09q0-.94-.26-1.77-.27-.83-.79-1.45-.53-.63-1.34-.99t-1.88-.36q-2.09 0-3.29 1.19-1.2 1.19-1.53 3.38Zm12.29 2.9h-12.39q.12 1.54.55 2.66.43 1.12 1.13 1.86.7.73 1.67 1.09.96.36 2.13.36t2.02-.28q.85-.27 1.48-.6.64-.33 1.12-.6.47-.28.92-.28.61 0 .9.45l1.38 1.76q-.8.93-1.79 1.57-1 .63-2.08 1.01t-2.2.54q-1.12.15-2.18.15-2.08 0-3.88-.69-1.79-.69-3.12-2.05-1.32-1.35-2.08-3.35t-.76-4.63q0-2.05.66-3.85.66-1.81 1.9-3.14 1.24-1.34 3.02-2.12 1.79-.78 4.03-.78 1.89 0 3.49.61 1.6.6 2.75 1.76 1.15 1.16 1.8 2.85.66 1.68.66 3.85 0 1.09-.24 1.47-.23.38-.89.38Zm17.29 3.47v-8.97q-.82-.99-1.78-1.4-.97-.41-2.08-.41-1.09 0-1.97.41-.87.41-1.5 1.24-.62.83-.95 2.1-.34 1.28-.34 3.01 0 1.76.29 2.98.28 1.22.81 1.99.52.77 1.28 1.11.76.34 1.7.34 1.5 0 2.55-.62 1.06-.63 1.99-1.78Zm0-23.05h4.82v28.98h-2.94q-.96 0-1.21-.88l-.41-1.93q-1.21 1.39-2.78 2.24-1.57.86-3.66.86-1.64 0-3-.68-1.37-.68-2.35-1.98-.99-1.3-1.52-3.21-.54-1.91-.54-4.37 0-2.22.61-4.13.6-1.91 1.73-3.31 1.13-1.41 2.71-2.2 1.58-.79 3.55-.79 1.68 0 2.87.53 1.19.53 2.12 1.42v-10.55Zm32.35 11.14-1.09 1.73q-.19.32-.41.44-.21.13-.54.13-.35 0-.75-.2l-.93-.44q-.53-.24-1.2-.43-.67-.2-1.59-.2-1.42 0-2.23.61-.81.6-.81 1.57 0 .65.42 1.09.42.44 1.11.77.69.33 1.57.59.88.27 1.78.58.91.31 1.79.71.88.4 1.57 1.01.69.62 1.11 1.48.42.85.42 2.06 0 1.45-.52 2.66-.52 1.22-1.53 2.11-1.01.89-2.51 1.38-1.49.5-3.44.5-1.03 0-2.02-.18-.98-.19-1.89-.52-.9-.33-1.67-.78-.77-.45-1.36-.98l1.11-1.83q.22-.33.51-.51.29-.17.74-.17t.85.25q.4.26.93.55.52.29 1.23.55.72.25 1.81.25.86 0 1.47-.21.61-.2 1.01-.53t.59-.77q.18-.44.18-.91 0-.7-.42-1.15-.41-.45-1.11-.78-.69-.33-1.58-.59-.88-.27-1.81-.58-.93-.31-1.81-.73-.89-.42-1.58-1.06-.7-.65-1.11-1.58-.42-.94-.42-2.27 0-1.22.48-2.34.49-1.11 1.44-1.94.94-.82 2.36-1.32 1.41-.5 3.26-.5 2.07 0 3.77.68 1.69.69 2.82 1.8Zm12.7-2.48q2.22 0 4.04.72 1.83.72 3.12 2.05 1.3 1.33 2 3.24.71 1.91.71 4.27 0 2.38-.71 4.29-.7 1.91-2 3.25-1.29 1.35-3.12 2.07-1.82.72-4.04.72-2.24 0-4.08-.72-1.83-.72-3.13-2.07-1.29-1.34-2.01-3.25-.71-1.91-.71-4.29 0-2.36.71-4.27.72-1.91 2.01-3.24 1.3-1.33 3.13-2.05 1.84-.72 4.08-.72Zm0 16.91q2.49 0 3.69-1.68 1.2-1.68 1.2-4.91 0-3.24-1.2-4.94-1.2-1.69-3.69-1.69-2.54 0-3.76 1.7-1.21 1.71-1.21 4.93 0 3.21 1.21 4.9 1.22 1.69 3.76 1.69Zm22.4-16.91q2.23 0 4.05.72 1.82.72 3.12 2.05 1.3 1.33 2 3.24.7 1.91.7 4.27 0 2.38-.7 4.29-.7 1.91-2 3.25-1.3 1.35-3.12 2.07-1.82.72-4.05.72-2.24 0-4.07-.72t-3.13-2.07q-1.3-1.34-2.01-3.25-.71-1.91-.71-4.29 0-2.36.71-4.27.71-1.91 2.01-3.24 1.3-1.33 3.13-2.05 1.83-.72 4.07-.72Zm0 16.91q2.5 0 3.7-1.68 1.2-1.68 1.2-4.91 0-3.24-1.2-4.94-1.2-1.69-3.7-1.69-2.53 0-3.75 1.7-1.22 1.71-1.22 4.93 0 3.21 1.22 4.9 1.22 1.69 3.75 1.69Zm17.73-15.72.33 1.58q.61-.6 1.28-1.12.67-.52 1.42-.88.75-.36 1.61-.56.86-.21 1.87-.21 1.64 0 2.91.56 1.27.55 2.11 1.56.85 1 1.29 2.4.44 1.39.44 3.07v12.73h-4.82v-12.73q0-1.84-.84-2.84-.83-1-2.55-1-1.25 0-2.34.56-1.09.57-2.07 1.54v14.47h-4.81v-20.01h2.94q.94 0 1.23.88Zm26.99 16.48q0-.61.22-1.15.23-.55.62-.94.39-.39.93-.62.55-.24 1.17-.24.63 0 1.16.24.54.23.94.62.4.39.63.94.24.54.24 1.15 0 .62-.24 1.16-.23.53-.63.92t-.94.62q-.53.22-1.16.22-.62 0-1.17-.22-.54-.23-.93-.62t-.62-.92q-.22-.54-.22-1.16Zm0-13.91q0-.6.22-1.15.23-.54.62-.93t.93-.63q.55-.23 1.17-.23.63 0 1.16.23.54.24.94.63.4.39.63.93.24.55.24 1.15 0 .63-.24 1.16-.23.54-.63.93t-.94.62q-.53.22-1.16.22-.62 0-1.17-.22-.54-.23-.93-.62t-.62-.93q-.22-.53-.22-1.16Zm13.06 4.33q0-4.01-.96-7.9-.97-3.89-2.78-7.29-.22-.41-.25-.71-.02-.3.05-.53.08-.22.25-.39.16-.16.38-.28l2.14-1.28q1.45 2.22 2.46 4.45t1.66 4.52q.64 2.28.93 4.63.3 2.35.3 4.78 0 2.44-.3 4.78-.29 2.34-.93 4.62-.65 2.28-1.66 4.53-1.01 2.24-2.46 4.46l-2.14-1.3q-.22-.12-.38-.29-.17-.16-.25-.39-.07-.22-.05-.52.03-.31.25-.7 1.81-3.41 2.78-7.29.96-3.88.96-7.9Z"/></svg>